<mxfile host="app.diagrams.net" agent="Mozilla/5.0 (Windows NT 10.0; Win64; x64) AppleWebKit/537.36 (KHTML, like Gecko) Chrome/130.0.0.0 Safari/537.36" version="24.8.2">
  <diagram name="Page-1" id="822b0af5-4adb-64df-f703-e8dfc1f81529">
    <mxGraphModel dx="1176" dy="511" grid="1" gridSize="10" guides="1" tooltips="1" connect="1" arrows="1" fold="1" page="1" pageScale="1" pageWidth="1100" pageHeight="850" background="none" math="0" shadow="0">
      <root>
        <mxCell id="0" />
        <mxCell id="1" parent="0" />
        <mxCell id="y_A2495Q9LJCkonH3XK9-1" value="" style="verticalLabelPosition=bottom;sketch=0;aspect=fixed;html=1;verticalAlign=top;strokeColor=none;align=center;outlineConnect=0;shape=mxgraph.citrix.router;" parent="1" vertex="1">
          <mxGeometry x="610" y="260" width="55" height="36.5" as="geometry" />
        </mxCell>
        <mxCell id="y_A2495Q9LJCkonH3XK9-2" value="" style="verticalLabelPosition=bottom;sketch=0;aspect=fixed;html=1;verticalAlign=top;strokeColor=none;align=center;outlineConnect=0;shape=mxgraph.citrix.router;" parent="1" vertex="1">
          <mxGeometry x="610" y="440" width="55" height="36.5" as="geometry" />
        </mxCell>
        <mxCell id="y_A2495Q9LJCkonH3XK9-3" value="" style="verticalLabelPosition=bottom;sketch=0;aspect=fixed;html=1;verticalAlign=top;strokeColor=none;align=center;outlineConnect=0;shape=mxgraph.citrix.router;" parent="1" vertex="1">
          <mxGeometry x="380" y="260" width="55" height="36.5" as="geometry" />
        </mxCell>
        <mxCell id="y_A2495Q9LJCkonH3XK9-4" value="" style="verticalLabelPosition=bottom;sketch=0;aspect=fixed;html=1;verticalAlign=top;strokeColor=none;align=center;outlineConnect=0;shape=mxgraph.citrix.router;" parent="1" vertex="1">
          <mxGeometry x="380" y="150" width="55" height="36.5" as="geometry" />
        </mxCell>
        <mxCell id="y_A2495Q9LJCkonH3XK9-5" value="" style="verticalLabelPosition=bottom;sketch=0;aspect=fixed;html=1;verticalAlign=top;strokeColor=none;align=center;outlineConnect=0;shape=mxgraph.citrix.router;" parent="1" vertex="1">
          <mxGeometry x="610" y="90" width="55" height="36.5" as="geometry" />
        </mxCell>
        <mxCell id="y_A2495Q9LJCkonH3XK9-6" value="" style="verticalLabelPosition=bottom;sketch=0;aspect=fixed;html=1;verticalAlign=top;strokeColor=none;align=center;outlineConnect=0;shape=mxgraph.citrix.router;" parent="1" vertex="1">
          <mxGeometry x="800" y="366.5" width="55" height="36.5" as="geometry" />
        </mxCell>
        <mxCell id="y_A2495Q9LJCkonH3XK9-7" value="" style="verticalLabelPosition=bottom;sketch=0;aspect=fixed;html=1;verticalAlign=top;strokeColor=none;align=center;outlineConnect=0;shape=mxgraph.citrix.router;" parent="1" vertex="1">
          <mxGeometry x="800" y="186.5" width="55" height="36.5" as="geometry" />
        </mxCell>
        <mxCell id="y_A2495Q9LJCkonH3XK9-10" value="" style="verticalLabelPosition=bottom;sketch=0;aspect=fixed;html=1;verticalAlign=top;strokeColor=none;align=center;outlineConnect=0;shape=mxgraph.citrix.router;" parent="1" vertex="1">
          <mxGeometry x="380" y="366.5" width="55" height="36.5" as="geometry" />
        </mxCell>
        <mxCell id="y_A2495Q9LJCkonH3XK9-11" value="Server 1" style="verticalLabelPosition=bottom;sketch=0;aspect=fixed;html=1;verticalAlign=top;strokeColor=none;align=center;outlineConnect=0;shape=mxgraph.citrix.license_server;" parent="1" vertex="1">
          <mxGeometry x="1000" y="248.82999999999998" width="45" height="58.85" as="geometry" />
        </mxCell>
        <mxCell id="y_A2495Q9LJCkonH3XK9-12" value="" style="endArrow=none;html=1;rounded=0;" parent="1" source="y_A2495Q9LJCkonH3XK9-7" target="y_A2495Q9LJCkonH3XK9-11" edge="1">
          <mxGeometry width="50" height="50" relative="1" as="geometry">
            <mxPoint x="550" y="380" as="sourcePoint" />
            <mxPoint x="600" y="330" as="targetPoint" />
          </mxGeometry>
        </mxCell>
        <mxCell id="y_A2495Q9LJCkonH3XK9-14" value="" style="endArrow=none;html=1;rounded=0;" parent="1" source="y_A2495Q9LJCkonH3XK9-6" target="y_A2495Q9LJCkonH3XK9-11" edge="1">
          <mxGeometry width="50" height="50" relative="1" as="geometry">
            <mxPoint x="550" y="380" as="sourcePoint" />
            <mxPoint x="600" y="330" as="targetPoint" />
          </mxGeometry>
        </mxCell>
        <mxCell id="y_A2495Q9LJCkonH3XK9-15" value="O1" style="text;html=1;align=center;verticalAlign=middle;whiteSpace=wrap;rounded=0;" parent="1" vertex="1">
          <mxGeometry x="797.5" y="230" width="60" height="30" as="geometry" />
        </mxCell>
        <mxCell id="y_A2495Q9LJCkonH3XK9-16" value="O2" style="text;html=1;align=center;verticalAlign=middle;whiteSpace=wrap;rounded=0;" parent="1" vertex="1">
          <mxGeometry x="800" y="410" width="60" height="30" as="geometry" />
        </mxCell>
        <mxCell id="y_A2495Q9LJCkonH3XK9-17" value="O5" style="text;html=1;align=center;verticalAlign=middle;whiteSpace=wrap;rounded=0;" parent="1" vertex="1">
          <mxGeometry x="610" y="480" width="60" height="30" as="geometry" />
        </mxCell>
        <mxCell id="y_A2495Q9LJCkonH3XK9-18" value="O4" style="text;html=1;align=center;verticalAlign=middle;whiteSpace=wrap;rounded=0;" parent="1" vertex="1">
          <mxGeometry x="610" y="296.5" width="60" height="30" as="geometry" />
        </mxCell>
        <mxCell id="y_A2495Q9LJCkonH3XK9-19" value="O3" style="text;html=1;align=center;verticalAlign=middle;whiteSpace=wrap;rounded=0;" parent="1" vertex="1">
          <mxGeometry x="607.5" y="130" width="60" height="30" as="geometry" />
        </mxCell>
        <mxCell id="y_A2495Q9LJCkonH3XK9-20" value="O8" style="text;html=1;align=center;verticalAlign=middle;whiteSpace=wrap;rounded=0;" parent="1" vertex="1">
          <mxGeometry x="377.5" y="410" width="60" height="30" as="geometry" />
        </mxCell>
        <mxCell id="y_A2495Q9LJCkonH3XK9-21" value="O7" style="text;html=1;align=center;verticalAlign=middle;whiteSpace=wrap;rounded=0;" parent="1" vertex="1">
          <mxGeometry x="377.5" y="307.68" width="60" height="30" as="geometry" />
        </mxCell>
        <mxCell id="y_A2495Q9LJCkonH3XK9-22" value="O6" style="text;html=1;align=center;verticalAlign=middle;whiteSpace=wrap;rounded=0;" parent="1" vertex="1">
          <mxGeometry x="377.5" y="189.75" width="60" height="30" as="geometry" />
        </mxCell>
        <mxCell id="lfFvhBPZTYHf4xSbVQt--1" value="Bootstrapper" style="sketch=0;aspect=fixed;pointerEvents=1;shadow=0;dashed=0;html=1;strokeColor=none;labelPosition=center;verticalLabelPosition=bottom;verticalAlign=top;align=center;fillColor=#00188D;shape=mxgraph.mscae.enterprise.server_directory" vertex="1" parent="1">
          <mxGeometry x="812" y="40" width="36" height="50" as="geometry" />
        </mxCell>
        <mxCell id="lfFvhBPZTYHf4xSbVQt--2" value="" style="endArrow=none;html=1;rounded=0;" edge="1" parent="1" source="y_A2495Q9LJCkonH3XK9-7" target="y_A2495Q9LJCkonH3XK9-5">
          <mxGeometry width="50" height="50" relative="1" as="geometry">
            <mxPoint x="870" y="290" as="sourcePoint" />
            <mxPoint x="920" y="240" as="targetPoint" />
          </mxGeometry>
        </mxCell>
        <mxCell id="lfFvhBPZTYHf4xSbVQt--3" value="" style="endArrow=none;html=1;rounded=0;entryX=-0.023;entryY=0.489;entryDx=0;entryDy=0;entryPerimeter=0;" edge="1" parent="1" source="y_A2495Q9LJCkonH3XK9-4" target="y_A2495Q9LJCkonH3XK9-7">
          <mxGeometry width="50" height="50" relative="1" as="geometry">
            <mxPoint x="610" y="330" as="sourcePoint" />
            <mxPoint x="660" y="280" as="targetPoint" />
          </mxGeometry>
        </mxCell>
        <mxCell id="lfFvhBPZTYHf4xSbVQt--4" value="" style="endArrow=none;html=1;rounded=0;" edge="1" parent="1" source="y_A2495Q9LJCkonH3XK9-1" target="y_A2495Q9LJCkonH3XK9-7">
          <mxGeometry width="50" height="50" relative="1" as="geometry">
            <mxPoint x="610" y="330" as="sourcePoint" />
            <mxPoint x="660" y="280" as="targetPoint" />
          </mxGeometry>
        </mxCell>
        <mxCell id="lfFvhBPZTYHf4xSbVQt--5" value="" style="endArrow=none;html=1;rounded=0;" edge="1" parent="1" source="y_A2495Q9LJCkonH3XK9-5" target="y_A2495Q9LJCkonH3XK9-6">
          <mxGeometry width="50" height="50" relative="1" as="geometry">
            <mxPoint x="610" y="330" as="sourcePoint" />
            <mxPoint x="660" y="280" as="targetPoint" />
          </mxGeometry>
        </mxCell>
        <mxCell id="lfFvhBPZTYHf4xSbVQt--6" value="" style="endArrow=none;html=1;rounded=0;" edge="1" parent="1" source="y_A2495Q9LJCkonH3XK9-10" target="y_A2495Q9LJCkonH3XK9-6">
          <mxGeometry width="50" height="50" relative="1" as="geometry">
            <mxPoint x="610" y="330" as="sourcePoint" />
            <mxPoint x="660" y="280" as="targetPoint" />
          </mxGeometry>
        </mxCell>
        <mxCell id="lfFvhBPZTYHf4xSbVQt--7" value="" style="endArrow=none;html=1;rounded=0;" edge="1" parent="1" source="y_A2495Q9LJCkonH3XK9-1" target="y_A2495Q9LJCkonH3XK9-5">
          <mxGeometry width="50" height="50" relative="1" as="geometry">
            <mxPoint x="610" y="330" as="sourcePoint" />
            <mxPoint x="660" y="280" as="targetPoint" />
          </mxGeometry>
        </mxCell>
        <mxCell id="lfFvhBPZTYHf4xSbVQt--8" value="" style="endArrow=none;html=1;rounded=0;" edge="1" parent="1" source="y_A2495Q9LJCkonH3XK9-2" target="y_A2495Q9LJCkonH3XK9-5">
          <mxGeometry width="50" height="50" relative="1" as="geometry">
            <mxPoint x="610" y="330" as="sourcePoint" />
            <mxPoint x="660" y="280" as="targetPoint" />
            <Array as="points">
              <mxPoint x="570" y="340" />
            </Array>
          </mxGeometry>
        </mxCell>
        <mxCell id="lfFvhBPZTYHf4xSbVQt--9" value="" style="endArrow=none;html=1;rounded=0;" edge="1" parent="1" source="y_A2495Q9LJCkonH3XK9-2" target="y_A2495Q9LJCkonH3XK9-1">
          <mxGeometry width="50" height="50" relative="1" as="geometry">
            <mxPoint x="610" y="330" as="sourcePoint" />
            <mxPoint x="660" y="280" as="targetPoint" />
          </mxGeometry>
        </mxCell>
        <mxCell id="lfFvhBPZTYHf4xSbVQt--10" value="" style="endArrow=none;html=1;rounded=0;" edge="1" parent="1" source="y_A2495Q9LJCkonH3XK9-4" target="y_A2495Q9LJCkonH3XK9-1">
          <mxGeometry width="50" height="50" relative="1" as="geometry">
            <mxPoint x="610" y="330" as="sourcePoint" />
            <mxPoint x="660" y="280" as="targetPoint" />
          </mxGeometry>
        </mxCell>
        <mxCell id="lfFvhBPZTYHf4xSbVQt--11" value="" style="endArrow=none;html=1;rounded=0;" edge="1" parent="1" source="y_A2495Q9LJCkonH3XK9-3" target="y_A2495Q9LJCkonH3XK9-1">
          <mxGeometry width="50" height="50" relative="1" as="geometry">
            <mxPoint x="610" y="330" as="sourcePoint" />
            <mxPoint x="660" y="280" as="targetPoint" />
          </mxGeometry>
        </mxCell>
        <mxCell id="lfFvhBPZTYHf4xSbVQt--12" value="" style="endArrow=none;html=1;rounded=0;" edge="1" parent="1" source="y_A2495Q9LJCkonH3XK9-3" target="y_A2495Q9LJCkonH3XK9-2">
          <mxGeometry width="50" height="50" relative="1" as="geometry">
            <mxPoint x="610" y="330" as="sourcePoint" />
            <mxPoint x="660" y="280" as="targetPoint" />
          </mxGeometry>
        </mxCell>
        <mxCell id="lfFvhBPZTYHf4xSbVQt--13" value="" style="endArrow=none;html=1;rounded=0;" edge="1" parent="1" source="y_A2495Q9LJCkonH3XK9-10" target="y_A2495Q9LJCkonH3XK9-2">
          <mxGeometry width="50" height="50" relative="1" as="geometry">
            <mxPoint x="610" y="330" as="sourcePoint" />
            <mxPoint x="660" y="280" as="targetPoint" />
          </mxGeometry>
        </mxCell>
      </root>
    </mxGraphModel>
  </diagram>
</mxfile>
